<svg width="83" height="36" viewBox="0 0 83 36" fill="none" xmlns="http://www.w3.org/2000/svg">
<path d="M0.86675 35V2.072H27.1708V7.928H8.06675V15.272H24.9628V21.08H8.06675V29.096H27.4588V35H0.86675ZM33.0564 35V0.295998H39.7284V35H33.0564ZM45.8533 6.056V0.295998H52.5253V6.056H45.8533ZM45.8533 35V9.752H52.5253V35H45.8533ZM72.7621 35.576C71.1301 35.576 69.6261 35.256 68.2501 34.616C66.9061 33.944 65.8181 32.936 64.9861 31.592H64.6501L64.1221 35H58.6501V0.295998H65.3221V12.536H65.6101C66.1221 11.8 66.7461 11.176 67.4821 10.664C68.2181 10.152 69.0501 9.784 69.9781 9.56C70.9061 9.304 71.9141 9.176 73.0021 9.176C74.9861 9.176 76.7141 9.64 78.1861 10.568C79.6901 11.496 80.8581 12.936 81.6901 14.888C82.5221 16.808 82.9381 19.288 82.9381 22.328C82.9381 25.368 82.5221 27.864 81.6901 29.816C80.8901 31.768 79.7221 33.224 78.1861 34.184C76.6821 35.112 74.8741 35.576 72.7621 35.576ZM70.6981 30.104C72.0421 30.104 73.0981 29.848 73.8661 29.336C74.6661 28.792 75.2421 27.992 75.5941 26.936C75.9461 25.88 76.1221 24.552 76.1221 22.952V21.848C76.1221 20.248 75.9461 18.92 75.5941 17.864C75.2421 16.776 74.6661 15.976 73.8661 15.464C73.0981 14.92 72.0421 14.648 70.6981 14.648C69.7381 14.648 68.9221 14.824 68.2501 15.176C67.5781 15.496 67.0181 15.976 66.5701 16.616C66.1541 17.224 65.8341 17.992 65.6101 18.92C65.3861 19.848 65.2741 20.872 65.2741 21.992V22.856C65.2741 24.36 65.4661 25.656 65.8501 26.744C66.2341 27.832 66.8261 28.664 67.6261 29.24C68.4261 29.816 69.4501 30.104 70.6981 30.104Z" fill="white"/>
</svg>
