<svg width="130" height="130" viewBox="0 0 130 130" fill="none" xmlns="http://www.w3.org/2000/svg">
<rect width="130" height="130" fill="black"/>
<path d="M24.8668 81V48.072H51.1708V53.928H32.0668V61.272H48.9628V67.08H32.0668V75.096H51.4588V81H24.8668ZM57.0564 81V46.296H63.7284V81H57.0564ZM69.8533 52.056V46.296H76.5253V52.056H69.8533ZM69.8533 81V55.752H76.5253V81H69.8533ZM96.7621 81.576C95.1301 81.576 93.6261 81.256 92.2501 80.616C90.9061 79.944 89.8181 78.936 88.9861 77.592H88.6501L88.1221 81H82.6501V46.296H89.3221V58.536H89.6101C90.1221 57.8 90.7461 57.176 91.4821 56.664C92.2181 56.152 93.0501 55.784 93.9781 55.56C94.9061 55.304 95.9141 55.176 97.0021 55.176C98.9861 55.176 100.714 55.64 102.186 56.568C103.69 57.496 104.858 58.936 105.69 60.888C106.522 62.808 106.938 65.288 106.938 68.328C106.938 71.368 106.522 73.864 105.69 75.816C104.89 77.768 103.722 79.224 102.186 80.184C100.682 81.112 98.8741 81.576 96.7621 81.576ZM94.6981 76.104C96.0421 76.104 97.0981 75.848 97.8661 75.336C98.6661 74.792 99.2421 73.992 99.5941 72.936C99.9461 71.88 100.122 70.552 100.122 68.952V67.848C100.122 66.248 99.9461 64.92 99.5941 63.864C99.2421 62.776 98.6661 61.976 97.8661 61.464C97.0981 60.92 96.0421 60.648 94.6981 60.648C93.7381 60.648 92.9221 60.824 92.2501 61.176C91.5781 61.496 91.0181 61.976 90.5701 62.616C90.1541 63.224 89.8341 63.992 89.6101 64.92C89.3861 65.848 89.2741 66.872 89.2741 67.992V68.856C89.2741 70.36 89.4661 71.656 89.8501 72.744C90.2341 73.832 90.8261 74.664 91.6261 75.24C92.4261 75.816 93.4501 76.104 94.6981 76.104Z" fill="white"/>
</svg>
